<?xml version="1.0" encoding="iso-8859-1"?>
<!-- Generator: Adobe Illustrator 19.0.0, SVG Export Plug-In . SVG Version: 6.00 Build 0)  -->
<svg version="1.1" id="Capa_1" xmlns="http://www.w3.org/2000/svg" xmlns:xlink="http://www.w3.org/1999/xlink" x="0px" y="0px"
	 viewBox="0 0 512 512" style="enable-background:new 0 0 512 512;" xml:space="preserve">
<path style="fill:#FEC478;" d="M446.143,253.535C424.844,151.248,332.156,76.857,225.97,76.857C101.787,76.857,0,176.145,0,298.528
	c0,82.489,47.193,157.479,121.284,195.873c4.498,2.401,9.9,2.401,14.397-0.3c41.695-23.696,72.89-60.591,90.288-103.486
	c17.399,42.896,48.894,79.791,90.288,103.787c2.401,1.199,4.798,1.8,7.499,1.8c2.401,0,4.798-0.601,6.898-1.5
	c74.093-38.694,120.286-113.684,120.286-196.173C450.941,283.23,449.441,268.232,446.143,253.535z"/>
<path style="fill:#B7E0F6;" d="M507.609,83.83L443.97,20.191c-5.858-5.858-15.35-5.858-21.208,0l-93.841,93.841
	c-5.858,5.858-5.858,15.35,0,21.208l63.918,63.346c2.93,2.93,6.767,4.394,10.604,4.394c3.837,0,7.675-1.465,10.604-4.394
	l93.562-93.548C513.464,99.183,513.464,89.685,507.609,83.83z"/>
<path style="fill:#FEB756;" d="M450.941,298.529c0,82.489-46.193,157.479-120.284,196.173c-2.1,0.899-4.498,1.5-6.898,1.5
	c-2.701,0-5.098-0.601-7.499-1.8c-41.395-23.997-72.89-60.891-90.288-103.787V76.857c106.185,0,198.874,74.389,220.172,176.677
	C449.441,268.232,450.941,283.23,450.941,298.529z"/>
<g>
</g>
<g>
</g>
<g>
</g>
<g>
</g>
<g>
</g>
<g>
</g>
<g>
</g>
<g>
</g>
<g>
</g>
<g>
</g>
<g>
</g>
<g>
</g>
<g>
</g>
<g>
</g>
<g>
</g>
</svg>
