<?xml version="1.0" encoding="iso-8859-1"?>
<!-- Generator: Adobe Illustrator 19.0.0, SVG Export Plug-In . SVG Version: 6.00 Build 0)  -->
<svg version="1.1" id="Capa_1" xmlns="http://www.w3.org/2000/svg" xmlns:xlink="http://www.w3.org/1999/xlink" x="0px" y="0px"
	 viewBox="0 0 512 512" style="enable-background:new 0 0 512 512;" xml:space="preserve">
<circle style="fill:#BFDFE8;" cx="256.001" cy="222.81" r="222.81"/>
<path style="fill:#94D3DD;" d="M421.149,372.376c-40.769,44.99-99.662,73.245-165.148,73.245
	c-123.054,0-222.812-99.758-222.812-222.812c0-92.78,56.713-172.319,137.363-205.831c-35.832,39.54-57.664,92-57.664,149.567
	c0,123.054,99.758,222.812,222.812,222.812C365.975,389.356,394.839,383.319,421.149,372.376z"/>
<path style="fill:#9F51BF;" d="M395.343,396.789H268.757h-25.512H116.659L104.966,506.47c-0.315,2.954,2.001,5.53,4.972,5.53
	h133.307h25.512h133.307c2.971,0,5.287-2.576,4.972-5.53L395.343,396.789z"/>
<path style="fill:#8842A8;" d="M219.682,396.787L207.402,512h-97.461c-2.971,0-5.287-2.576-4.972-5.53l11.691-109.683H219.682z"/>
<g>
	<path style="fill:#EDC148;" d="M353.192,122.68c-2.781,10.536-8.845,27.044-20.449,32.948c-1.541,0.784-1.541,2.927,0,3.71
		c11.604,5.904,17.668,22.412,20.449,32.948c0.542,2.054,3.443,2.054,3.985,0c2.781-10.536,8.845-27.044,20.449-32.948
		c1.541-0.784,1.541-2.927,0-3.71c-11.604-5.904-17.668-22.412-20.449-32.948C356.636,120.626,353.735,120.626,353.192,122.68z"/>
	<path style="fill:#EDC148;" d="M408.97,199.252c-2.226,7.759-6.596,18.549-14.383,23.003c-1.413,0.808-1.413,2.779,0,3.587
		c7.788,4.454,12.157,15.244,14.383,23.003c0.567,1.975,3.385,1.975,3.952,0c2.226-7.759,6.596-18.549,14.383-23.003
		c1.413-0.808,1.413-2.779,0-3.587c-7.788-4.454-12.157-15.244-14.383-23.003C412.356,197.277,409.537,197.277,408.97,199.252z"/>
</g>
<g>
</g>
<g>
</g>
<g>
</g>
<g>
</g>
<g>
</g>
<g>
</g>
<g>
</g>
<g>
</g>
<g>
</g>
<g>
</g>
<g>
</g>
<g>
</g>
<g>
</g>
<g>
</g>
<g>
</g>
</svg>
